<svg width="256" height="256" viewBox="0 0 256 256" fill="none" xmlns="http://www.w3.org/2000/svg">
  <rect width="256" height="256" rx="64" fill="#0F172A"/>
  <path d="M128 44C83.817 44 48 79.817 48 124C48 168.183 83.817 204 128 204C172.183 204 208 168.183 208 124C208 79.817 172.183 44 128 44ZM128 66C160.033 66 186 91.967 186 124C186 156.033 160.033 182 128 182C95.9675 182 70 156.033 70 124C70 91.967 95.9675 66 128 66Z" fill="url(#paint0_linear)"/>
  <path d="M104 94C96.268 94 90 100.268 90 108V148C90 155.732 96.268 162 104 162H152C159.732 162 166 155.732 166 148V108C166 100.268 159.732 94 152 94H104ZM110 114H146C150.418 114 154 117.582 154 122C154 126.418 150.418 130 146 130H110C105.582 130 102 126.418 102 122C102 117.582 105.582 114 110 114ZM110 134H132C136.418 134 140 137.582 140 142C140 146.418 136.418 150 132 150H110C105.582 150 102 146.418 102 142C102 137.582 105.582 134 110 134Z" fill="white"/>
  <defs>
    <linearGradient id="paint0_linear" x1="48" y1="44" x2="208" y2="204" gradientUnits="userSpaceOnUse">
      <stop stop-color="#D97706"/>
      <stop offset="1" stop-color="#F59E0B"/>
    </linearGradient>
  </defs>
</svg>
